<?xml version="1.0" encoding="UTF-8"?>
<svg id="Layer_1" xmlns="http://www.w3.org/2000/svg" version="1.1" viewBox="0 0 512 512">
  <!-- Generator: Adobe Illustrator 29.8.2, SVG Export Plug-In . SVG Version: 2.1.1 Build 3)  -->
  <defs>
    <style>
      .st0 {
        fill: #e6e7e8;
      }

      .st1 {
        fill: #1b1f33;
      }
    </style>
  </defs>
  <rect class="st1" x="-11.98" y="-11.98" width="535.95" height="535.95"/>
  <path class="st0" d="M266.48,357.25c-24.81,0-45.64-5.29-62.5-15.89-16.86-10.6-29.57-25.16-38.11-43.71-8.55-18.54-12.82-39.49-12.82-62.86,0-26.25,5.06-48.53,15.17-66.83,10.11-18.3,24.08-32.27,41.9-41.91,17.82-9.63,38.29-14.45,61.41-14.45,12.76,0,23,1.08,30.71,3.25,7.71,2.17,13.85,4.33,18.42,6.5,4.57,2.17,8.31,3.25,11.2,3.25s5.11-1.26,6.68-3.79c1.56-2.53,3.43-5.6,5.6-9.21h10.84v82.73h-12.28c-3.86-23.6-11.98-40.7-24.38-51.3-12.41-10.59-27.88-15.9-46.42-15.9-26.01,0-46.06,9.27-60.15,27.82-14.09,18.55-21.13,43.95-21.13,76.22,0,24.09,3.67,43.71,11.02,58.88,7.34,15.17,17.52,26.37,30.53,33.6,13,7.23,27.93,10.84,44.8,10.84s31.19-3.07,43.71-9.21c12.52-6.14,23.84-14.75,33.96-25.83l8.67,7.59c-6.5,9.64-14.27,18.24-23.3,25.83-9.03,7.59-19.57,13.55-31.61,17.88-12.04,4.33-26.01,6.5-41.9,6.5Z"/>
</svg>