<svg xmlns="http://www.w3.org/2000/svg" id="Layer_1" version="1.1" viewBox="0 0 201.03 201.03"><defs><style>.st0{fill:#e6e7e8}.st1{fill:#1b1f33}</style></defs><rect width="209.89" height="209.89" x="-4.43" y="-4.43" class="st1"/><path d="M104.62,140.17c-9.71,0-17.87-2.07-24.48-6.23-6.6-4.15-11.58-9.85-14.92-17.12-3.35-7.26-5.02-15.47-5.02-24.62,0-10.28,1.98-19,5.94-26.17,3.96-7.17,9.43-12.64,16.41-16.41,6.98-3.77,15-5.66,24.05-5.66,5,0,9.01.42,12.03,1.27,3.02.85,5.42,1.7,7.22,2.55,1.79.85,3.25,1.27,4.39,1.27s2-.5,2.62-1.49c.61-.99,1.34-2.19,2.19-3.61h4.24v32.4h-4.81c-1.51-9.24-4.69-15.94-9.55-20.09-4.86-4.15-10.92-6.23-18.18-6.23-10.19,0-18.04,3.63-23.56,10.89-5.52,7.26-8.28,17.21-8.28,29.85,0,9.43,1.44,17.12,4.32,23.06,2.88,5.94,6.86,10.33,11.95,13.16,5.09,2.83,10.94,4.24,17.54,4.24s12.21-1.2,17.12-3.61c4.9-2.4,9.34-5.78,13.3-10.12l3.4,2.97c-2.55,3.77-5.59,7.14-9.12,10.12-3.54,2.97-7.66,5.3-12.38,7-4.72,1.7-10.19,2.55-16.41,2.55Z" class="st0"/></svg>